<svg width="13" height="8" viewBox="0 0 13 8" fill="none" xmlns="http://www.w3.org/2000/svg">
<path d="M6.40616 7.49418C6.2619 7.47328 6.12811 7.40715 6.02334 7.30538L0.246086 1.72967C0.10021 1.60588 0.0115295 1.42695 0.00104793 1.23541C-0.00943365 1.0437 0.059068 0.856182 0.190624 0.716997C0.322015 0.577812 0.504783 0.499362 0.695638 0.500025C0.886659 0.50069 1.06881 0.580425 1.19937 0.720565L6.5 5.8391L11.8006 0.720565C11.9312 0.580384 12.1133 0.500648 12.3044 0.500025C12.4952 0.499362 12.678 0.577812 12.8094 0.716997C12.9409 0.856182 13.0094 1.0437 12.999 1.23541C12.9885 1.42695 12.8998 1.60588 12.7539 1.72967L6.97667 7.30538C6.82481 7.45203 6.61493 7.52156 6.4062 7.49402L6.40616 7.49418Z" fill="black"/>
</svg>
