<svg width="12" height="6" viewBox="0 0 12 6" fill="none" xmlns="http://www.w3.org/2000/svg">
<path d="M5.49106 5.99507C5.3674 5.97715 5.25273 5.92046 5.16292 5.83323L0.210933 1.054C0.0858955 0.947886 0.00988256 0.794517 0.000898237 0.630337C-0.00808608 0.466015 0.0506303 0.305285 0.163394 0.185981C0.276016 0.066678 0.432676 -0.000565529 0.596269 3.8147e-06C0.760002 0.000572681 0.916131 0.0689182 1.02805 0.189039L5.57149 4.57641L10.1149 0.189039C10.2269 0.0688829 10.383 0.000536919 10.5467 3.8147e-06C10.7103 -0.000565529 10.867 0.066678 10.9796 0.185981C11.0924 0.305285 11.1511 0.466015 11.1421 0.630337C11.1331 0.794517 11.0571 0.947886 10.9321 1.054L5.98007 5.83323C5.8499 5.95894 5.67 6.01854 5.4911 5.99492L5.49106 5.99507Z" fill="white"/>
</svg>
