<svg width="5" height="7" viewBox="0 0 5 7" fill="none" xmlns="http://www.w3.org/2000/svg">
<path d="M4.2469 3.55053C4.23564 3.62821 4.20003 3.70025 4.14524 3.75667L1.14293 6.86749C1.07627 6.94604 0.979927 6.99379 0.876789 6.99944C0.773563 7.00508 0.672592 6.96819 0.597646 6.89736C0.5227 6.82661 0.480458 6.72819 0.480816 6.62543C0.481173 6.52257 0.524107 6.42449 0.599567 6.35418L3.3557 3.5L0.599567 0.645817C0.524085 0.575512 0.481151 0.477432 0.480816 0.374575C0.480458 0.271806 0.5227 0.173371 0.597646 0.102644C0.672592 0.0318062 0.773563 -0.00507909 0.876789 0.00056475C0.979927 0.00620859 1.07627 0.0539371 1.14293 0.132508L4.14524 3.24333C4.22421 3.3251 4.26164 3.43812 4.24681 3.55051L4.2469 3.55053Z" fill="#494849"/>
</svg>
