<svg width="4" height="7" viewBox="0 0 4 7" fill="none" xmlns="http://www.w3.org/2000/svg">
<path d="M0.0030988 3.44947C0.0143574 3.37179 0.0499652 3.29975 0.104762 3.24333L3.10707 0.132508C3.17373 0.0539592 3.27007 0.006208 3.37321 0.000564066C3.47644 -0.00507987 3.57741 0.0318056 3.65235 0.102644C3.7273 0.173393 3.76954 0.271806 3.76918 0.374574C3.76883 0.477432 3.72589 0.575511 3.65043 0.645816L0.894297 3.5L3.65043 6.35418C3.72592 6.42449 3.76885 6.52257 3.76918 6.62543C3.76954 6.72819 3.7273 6.82663 3.65235 6.89736C3.57741 6.96819 3.47644 7.00508 3.37321 6.99944C3.27007 6.99379 3.17373 6.94606 3.10707 6.86749L0.104762 3.75667C0.0257948 3.6749 -0.0116447 3.56188 0.00318815 3.44949L0.0030988 3.44947Z" fill="#494849"/>
</svg>
