<svg width="76" height="58" viewBox="0 0 76 58" fill="none" xmlns="http://www.w3.org/2000/svg">
<path d="M65.2921 24.1883C68.6002 25.4021 71.2119 27.5695 73.1271 30.6906C75.0424 33.6383 76 36.846 76 40.3139C76 45.3423 74.2589 49.5904 70.7766 53.0583C67.2944 56.3528 62.9416 58 57.7182 58C53.0172 58 48.9255 56.4395 45.4433 53.3184C41.961 50.1973 40.2199 45.8625 40.2199 40.3139C40.2199 38.2332 40.6552 36.0658 41.5258 33.8117L54.5842 4.42153L68.1649 7.5426L65.2921 24.1883ZM25.3333 24.1883C28.6415 25.4021 31.1661 27.5695 32.9072 30.6906C34.8224 33.6383 35.7801 36.846 35.7801 40.3139C35.7801 45.3423 33.9519 49.5904 30.2955 53.0583C26.8133 56.3528 22.5475 58 17.4983 58C12.7972 58 8.70561 56.4395 5.22337 53.3184C1.74112 50.1973 0 45.8625 0 40.3139C0 38.2332 0.435281 36.0658 1.30584 33.8117L15.6701 0L30.0344 3.12108L25.3333 24.1883Z" fill="#F1F0F0"/>
</svg>
