<svg width="76" height="58" viewBox="0 0 76 58" fill="none" xmlns="http://www.w3.org/2000/svg">
<path d="M10.7079 33.8117C7.39978 32.5979 4.7881 30.4305 2.87286 27.3094C0.957629 24.3617 3.22118e-06 21.154 3.52435e-06 17.6861C3.96395e-06 12.6577 1.74113 8.40955 5.22338 4.94169C8.70562 1.64722 13.0584 -9.31723e-06 18.2818 -8.86058e-06C22.9828 -8.44961e-06 27.0745 1.56053 30.5567 4.68161C34.039 7.80268 35.7801 12.1375 35.7801 17.6861C35.7801 19.7668 35.3448 21.9342 34.4742 24.1883L21.4158 53.5785L7.83505 50.4574L10.7079 33.8117ZM50.6667 33.8117C47.3585 32.5979 44.8339 30.4305 43.0928 27.3094C41.1776 24.3617 40.2199 21.154 40.2199 17.6861C40.2199 12.6577 42.0481 8.40956 45.7045 4.94169C49.1867 1.64723 53.4525 -5.78587e-06 58.5017 -5.34445e-06C63.2028 -4.93347e-06 67.2944 1.56053 70.7766 4.68161C74.2589 7.80269 76 12.1375 76 17.6861C76 19.7668 75.5647 21.9342 74.6942 24.1883L60.3299 58L45.9656 54.8789L50.6667 33.8117Z" fill="#F1F0F0"/>
</svg>
