<svg width="40" height="40" viewBox="0 0 40 40" fill="none" xmlns="http://www.w3.org/2000/svg">
<rect width="40" height="40" rx="5" fill="#6D758F"/>
<rect width="40" height="40" rx="5" fill="url(#paint0_linear_28_630)"/>
<path d="M20.3333 24.664C20.1902 24.664 20.0578 24.6405 19.936 24.5933C19.8142 24.5462 19.6956 24.4645 19.58 24.348L16.0867 20.856C15.9569 20.7262 15.8893 20.5733 15.884 20.3973C15.8787 20.2213 15.9462 20.06 16.0867 19.9133C16.2342 19.7658 16.3929 19.6907 16.5627 19.688C16.7333 19.6853 16.892 19.7578 17.0387 19.9053L19.6667 22.5333V11.6667C19.6667 11.4773 19.7302 11.3187 19.8573 11.1907C19.9844 11.0627 20.1431 10.9991 20.3333 11C20.5236 11.0009 20.6822 11.0645 20.8093 11.1907C20.9364 11.3169 21 11.4756 21 11.6667V22.5333L23.628 19.9053C23.7578 19.7756 23.912 19.7076 24.0907 19.7013C24.2693 19.6951 24.432 19.7658 24.5787 19.9133C24.7209 20.06 24.7933 20.2173 24.796 20.3853C24.7987 20.5533 24.7267 20.7102 24.58 20.856L21.0867 24.3493C20.9711 24.4649 20.8524 24.5462 20.7307 24.5933C20.6098 24.6405 20.4773 24.664 20.3333 24.664ZM13.1547 29.6667C12.5404 29.6667 12.028 29.4613 11.6173 29.0507C11.2067 28.64 11.0009 28.1271 11 27.512V24.948C11 24.7587 11.0636 24.6005 11.1907 24.4733C11.3178 24.3462 11.4764 24.2822 11.6667 24.2813C11.8569 24.2805 12.0156 24.3445 12.1427 24.4733C12.2698 24.6022 12.3333 24.7605 12.3333 24.948V27.512C12.3333 27.7173 12.4187 27.9058 12.5893 28.0773C12.76 28.2489 12.948 28.3342 13.1533 28.3333H27.5133C27.7178 28.3333 27.9058 28.248 28.0773 28.0773C28.2489 27.9067 28.3342 27.7182 28.3333 27.512V24.948C28.3333 24.7587 28.3969 24.6005 28.524 24.4733C28.6511 24.3462 28.8098 24.2822 29 24.2813C29.1902 24.2805 29.3489 24.3445 29.476 24.4733C29.6031 24.6022 29.6667 24.7605 29.6667 24.948V27.512C29.6667 28.1262 29.4613 28.6387 29.0507 29.0493C28.64 29.46 28.1271 29.6658 27.512 29.6667H13.1547Z" fill="white"/>
<defs>
<linearGradient id="paint0_linear_28_630" x1="-1.50794" y1="-73.8182" x2="69.6422" y2="-59.6623" gradientUnits="userSpaceOnUse">
<stop stop-color="#FF0000"/>
<stop offset="1" stop-color="#990000"/>
</linearGradient>
</defs>
</svg>
