<svg width="32" height="32" viewBox="0 0 32 32" fill="none" xmlns="http://www.w3.org/2000/svg">
<path d="M11.7682 13.36C11.6853 13.2555 11.5824 13.1687 11.4655 13.1046C11.3486 13.0406 11.22 13.0005 11.0873 12.9868C10.9547 12.9732 10.8207 12.9862 10.6931 13.0251C10.5656 13.064 10.4471 13.128 10.3447 13.2133C10.2422 13.2987 10.1579 13.4037 10.0967 13.5221C10.0354 13.6406 9.99843 13.7701 9.98796 13.903C9.97748 14.0359 9.99369 14.1696 10.0356 14.2962C10.0776 14.4227 10.1444 14.5396 10.2322 14.64L14.6982 20L10.2322 25.36C10.07 25.5645 9.9941 25.8244 10.0209 26.084C10.0476 26.3437 10.1749 26.5827 10.3754 26.7498C10.576 26.9169 10.8339 26.999 11.0942 26.9785C11.3544 26.958 11.5963 26.8365 11.7682 26.64L16.0002 21.562L20.2322 26.642C20.4022 26.8457 20.6462 26.9735 20.9104 26.9973C21.0413 27.0091 21.1731 26.995 21.2985 26.9558C21.4239 26.9167 21.5404 26.8532 21.6412 26.769C21.7421 26.6848 21.8254 26.5816 21.8863 26.4652C21.9473 26.3489 21.9847 26.2216 21.9965 26.0908C22.0083 25.96 21.9942 25.8281 21.9551 25.7027C21.9159 25.5773 21.8524 25.4609 21.7682 25.36L17.3022 20L21.7682 14.64C21.9305 14.4355 22.0064 14.1756 21.9796 13.916C21.9528 13.6563 21.8256 13.4173 21.625 13.2502C21.4245 13.0831 21.1665 13.001 20.9063 13.0215C20.646 13.042 20.4041 13.1635 20.2322 13.36L16.0002 18.438L11.7682 13.36Z" fill="#096101"/>
<path d="M28 28V9L19 0H8C6.93913 0 5.92172 0.421427 5.17157 1.17157C4.42143 1.92172 4 2.93913 4 4V28C4 29.0609 4.42143 30.0783 5.17157 30.8284C5.92172 31.5786 6.93913 32 8 32H24C25.0609 32 26.0783 31.5786 26.8284 30.8284C27.5786 30.0783 28 29.0609 28 28ZM19 6C19 6.79565 19.3161 7.55871 19.8787 8.12132C20.4413 8.68393 21.2044 9 22 9H26V28C26 28.5304 25.7893 29.0391 25.4142 29.4142C25.0391 29.7893 24.5304 30 24 30H8C7.46957 30 6.96086 29.7893 6.58579 29.4142C6.21071 29.0391 6 28.5304 6 28V4C6 3.46957 6.21071 2.96086 6.58579 2.58579C6.96086 2.21071 7.46957 2 8 2H19V6Z" fill="#096101"/>
</svg>
