<svg width="100" height="39" viewBox="0 0 100 39" fill="none" xmlns="http://www.w3.org/2000/svg">
<path d="M27.8079 1.14441e-05H48.2703L48.2702 39H27.8078L27.8079 1.14441e-05Z" fill="#FF0000"/>
<path d="M26.6204 25.8423L25.8607 27.7098C22.902 29.2226 19.7434 29.979 16.3849 29.979C11.5736 29.979 7.66534 28.6068 4.65999 25.8624C1.65464 23.118 0.151962 19.5303 0.151962 15.0991C0.151962 12.0468 0.901622 9.37944 2.40097 7.0969C3.90032 4.8144 5.87945 3.10754 8.33838 1.97629C10.7973 0.845101 13.5594 0.279493 16.6248 0.279461C18.3973 0.279493 20.1499 0.466913 21.8825 0.841719C23.615 1.21659 25.061 1.66507 26.2206 2.18714L26.3605 2.38795C26.0539 3.13766 25.7674 4.99179 25.5009 7.95034L25.3609 8.11098H24.4213L24.2614 7.95034L24.0615 4.53659C23.0886 3.76016 21.9124 3.15439 20.5331 2.71929C19.1536 2.28422 17.7176 2.06668 16.2249 2.06665C13.9726 2.06668 11.9535 2.55196 10.1676 3.52252C8.38168 4.49311 6.99562 5.89877 6.00939 7.73949C5.02315 9.58024 4.53004 11.8326 4.53006 14.4967C4.53004 17.1741 5.10979 19.5236 6.26928 21.545C7.42877 23.5665 9.01141 25.1194 11.0172 26.2038C13.023 27.2882 15.3653 27.8303 18.0441 27.8303C19.2303 27.8303 20.3698 27.7165 21.4626 27.489C22.5555 27.2614 23.4651 26.9802 24.1914 26.6456C24.9178 26.3109 25.6141 25.9026 26.2805 25.4206L26.6204 25.8423Z" fill="white"/>
<path d="M46.1633 26.2841L45.5236 27.7299C44.1375 28.6269 42.9014 29.2092 41.8152 29.477C40.729 29.7447 39.7594 29.8786 38.9065 29.8786C37.3071 29.8786 35.7911 29.564 34.3584 28.9348C32.9257 28.3056 31.7596 27.2413 30.86 25.7419C29.9604 24.2426 29.5106 22.4353 29.5106 20.3201C29.5106 18.9145 29.6838 17.646 30.0303 16.5148C30.3768 15.3836 30.74 14.5435 31.1198 13.9947C31.4997 13.4458 32.1427 12.8367 33.049 12.1673C33.9553 11.498 34.9149 10.9625 35.9277 10.5608C36.9406 10.1592 38.0335 9.95843 39.2063 9.95841C40.8056 9.95843 42.215 10.3366 43.4345 11.093C44.6539 11.8494 45.5102 12.8166 46.0033 13.9947C46.4964 15.1727 46.743 16.4244 46.743 17.7498C46.743 18.1648 46.723 18.5664 46.683 18.9546L46.4631 19.1755C45.5568 19.3763 44.3374 19.5102 42.8047 19.5771C41.2721 19.644 40.2592 19.6776 39.7661 19.6776H33.3489C33.3755 22.4487 34.0686 24.4903 35.428 25.8022C36.7874 27.1142 38.4533 27.7701 40.4258 27.7701C41.3587 27.7701 42.255 27.6095 43.1146 27.2882C43.9742 26.9669 44.8838 26.5184 45.8434 25.9428L46.1633 26.2841ZM33.3489 18.0711C33.5888 18.1113 34.5117 18.158 36.1177 18.2116C37.7236 18.2652 38.9131 18.2919 39.6861 18.2919C41.5386 18.2919 42.6648 18.2585 43.0646 18.1915C43.0779 17.8702 43.0846 17.6225 43.0846 17.4485C43.0846 15.3735 42.6648 13.8306 41.8251 12.8199C40.9855 11.8091 39.8393 11.3038 38.3866 11.3037C36.8007 11.3038 35.5645 11.8727 34.6783 13.0106C33.792 14.1485 33.3489 15.8354 33.3489 18.0711Z" fill="white"/>
<path d="M56.4902 10.099L56.87 10.36C56.7901 11.1365 56.7301 12.5154 56.6901 14.4967L58.1894 12.589C58.6825 11.9598 59.119 11.4745 59.4989 11.1331C59.8787 10.7918 60.3218 10.5274 60.8283 10.3399C61.3347 10.1525 61.8545 10.0588 62.3876 10.0588C62.974 10.0588 63.5271 10.1793 64.0469 10.4203L64.1868 10.7014C63.9736 12.4819 63.8536 14.0482 63.827 15.4003H62.9274C62.3942 14.1687 61.5346 13.5529 60.3485 13.5529C59.5222 13.5529 58.8025 13.8173 58.1894 14.3461C57.5764 14.8749 57.1665 15.5375 56.96 16.3341C56.7534 17.1306 56.6501 18.138 56.6501 19.3562V21.5852C56.6501 21.9868 56.6767 22.9708 56.7301 24.5371C56.7834 26.1034 56.84 27.007 56.9 27.248C56.96 27.489 57.0532 27.6663 57.1798 27.7801C57.3064 27.8939 57.4731 27.9709 57.6796 28.0111C57.8862 28.0513 58.8358 28.1182 60.5284 28.2119L60.7083 28.3725V29.2159L60.5284 29.3966C58.7558 29.2895 56.9033 29.236 54.9708 29.236C53.4381 29.236 51.8389 29.2895 50.1729 29.3966L49.993 29.2159V28.3725L50.1729 28.2119C51.4657 28.1316 52.1954 28.0713 52.362 28.0311C52.5285 27.9909 52.6752 27.9073 52.8018 27.7801C52.9284 27.6529 53.015 27.4588 53.0617 27.1978C53.1083 26.9367 53.1617 26.0733 53.2216 24.6074C53.2816 23.1415 53.3116 22.0337 53.3116 21.284V17.3281C53.3116 16.7926 53.2849 16.063 53.2316 15.1393C53.1783 14.2156 53.135 13.6466 53.1017 13.4324C53.0683 13.2182 52.965 13.0609 52.7918 12.9605C52.6185 12.8601 52.272 12.8099 51.7523 12.8099L50.073 12.7898L49.8931 12.6292V11.7657L50.053 11.6051C52.5985 11.2972 54.7443 10.7951 56.4902 10.099Z" fill="white"/>
<path d="M66.6172 13.4725V12.9504L66.7571 12.7496C68.0099 12.2811 69.0228 11.846 69.7958 11.4444C69.7958 7.95035 69.7558 5.91549 69.6759 5.33982C71.0486 4.85791 72.1748 4.3425 73.0544 3.7936L73.5342 4.19521C73.4009 5.03864 73.241 7.48849 73.0544 11.5448C73.7207 11.5581 74.4404 11.5648 75.2134 11.5648C76.7861 11.5649 77.9122 11.5247 78.592 11.4444L78.7319 11.5849L78.352 13.2717L78.1921 13.4524C77.5124 13.4391 76.7594 13.4324 75.9331 13.4324C75.1868 13.4324 74.2272 13.4396 73.0544 13.4524L72.9344 21.6253C72.9344 23.5129 72.9777 24.7479 73.0644 25.3302C73.151 25.9126 73.3909 26.3677 73.7841 26.6957C74.1772 27.0237 74.7603 27.1877 75.5333 27.1877C76.4262 27.1877 77.2525 26.9534 78.0122 26.4849L78.492 27.2078C78.1721 27.4354 77.4058 28.1047 76.193 29.2159C75.5 29.5372 74.7936 29.6978 74.0739 29.6978C71.0752 29.6978 69.5759 28.2386 69.5759 25.3202C69.5759 24.2492 69.6025 23.3389 69.6558 22.5892C69.6691 22.3616 69.6758 22.1274 69.6758 21.8864V13.5528H68.8562C68.2564 13.5529 67.5701 13.5797 66.7971 13.6331L66.6172 13.4725Z" fill="white"/>
<path d="M84.021 15.6212L83.2413 15.4204L83.0814 15.2196V12.7296C85.4537 10.9625 87.7594 10.0789 89.9984 10.0789C91.531 10.0789 92.8038 10.3667 93.8167 10.9424C94.8296 11.518 95.5626 12.2376 96.0158 13.1011C96.4689 13.9645 96.6955 14.9719 96.6955 16.1232L96.5955 20.1595V26.1435C96.5954 26.9602 96.6521 27.4555 96.7654 27.6295C96.8787 27.8036 97.0086 27.9207 97.1552 27.9809C97.3018 28.0412 97.575 28.0914 97.9749 28.1315L99.1144 28.232L99.2743 28.4127V29.2159L99.1144 29.3766C98.1414 29.2963 97.2352 29.2561 96.3956 29.2561C95.5959 29.2561 94.6363 29.2963 93.5168 29.3766L93.2169 29.0955L93.2969 25.8625L88.9388 29.2762C88.2058 29.5841 87.4061 29.7381 86.5398 29.7381C85.4736 29.7381 84.5574 29.5439 83.791 29.1557C83.0247 28.7675 82.4383 28.2253 82.0318 27.5292C81.6253 26.833 81.4221 25.9896 81.4221 24.999C81.4221 23.0311 82.0352 21.4949 83.2613 20.3904C84.4874 19.286 87.8326 18.3455 93.2969 17.5691C93.2969 15.5878 92.8571 14.1922 91.9775 13.3822C91.0978 12.5723 89.9184 12.1674 88.439 12.1673C87.666 12.1674 86.963 12.2811 86.3299 12.5087C85.6969 12.7363 85.3337 12.9204 85.2404 13.0609C85.1472 13.2015 84.7873 14.0215 84.1609 15.5208L84.021 15.6212ZM93.297 18.794C89.5652 19.4232 87.2396 20.0992 86.32 20.8221C85.4004 21.545 84.9406 22.6629 84.9406 24.1756C84.9406 26.264 85.9735 27.3082 88.0392 27.3082C89.8118 27.3082 91.5644 26.2774 93.297 24.2158V18.794Z" fill="white"/>
</svg>
