<svg width="13" height="7" viewBox="0 0 13 7" fill="none" xmlns="http://www.w3.org/2000/svg">
<path d="M6.40616 6.99424C6.2619 6.97333 6.12811 6.9072 6.02334 6.80543L0.246086 1.22972C0.10021 1.10593 0.0115295 0.927 0.00104793 0.735459C-0.00943365 0.543752 0.059068 0.356236 0.190624 0.21705C0.322015 0.0778651 0.504783 -0.000585079 0.695638 7.86781e-05C0.886659 0.000742912 1.06881 0.0804787 1.19937 0.220618L6.5 5.33916L11.8006 0.220618C11.9312 0.0804372 12.1133 0.000701427 12.3044 7.86781e-05C12.4952 -0.000585079 12.678 0.0778651 12.8094 0.21705C12.9409 0.356236 13.0094 0.543752 12.999 0.735459C12.9885 0.927 12.8998 1.10593 12.7539 1.22972L6.97667 6.80543C6.82481 6.95209 6.61493 7.02162 6.4062 6.99407L6.40616 6.99424Z" fill="white"/>
</svg>
