<svg width="32" height="32" viewBox="0 0 32 32" fill="none" xmlns="http://www.w3.org/2000/svg">
<path d="M10.0002 15C10.0002 14.4696 10.2109 13.9609 10.586 13.5858C10.9611 13.2107 11.4698 13 12.0002 13H14.0002C14.5306 13 15.0394 13.2107 15.4144 13.5858C15.7895 13.9609 16.0002 14.4696 16.0002 15V16.876L16.8002 20.074C16.8999 20.4741 16.8734 20.8953 16.7245 21.2798C16.5756 21.6643 16.3114 21.9934 15.9682 22.222L14.1082 23.462C13.7796 23.6813 13.3933 23.7983 12.9982 23.7983C12.6031 23.7983 12.2169 23.6813 11.8882 23.462L10.0302 22.222C9.68738 21.9931 9.42363 21.6639 9.27506 21.2794C9.12648 20.8949 9.10034 20.4739 9.20022 20.074L10.0002 16.876V15ZM14.0002 15H12.0002V16.876C12.0002 17.0398 11.98 17.2031 11.9402 17.362L11.1402 20.558L13.0002 21.798L14.8582 20.558L14.0582 17.362C14.0191 17.203 13.9996 17.0398 14.0002 16.876V15Z" fill="#FF7A00"/>
<path d="M28 9V28C28 29.0609 27.5786 30.0783 26.8284 30.8284C26.0783 31.5786 25.0609 32 24 32H8C6.93913 32 5.92172 31.5786 5.17157 30.8284C4.42143 30.0783 4 29.0609 4 28V4C4 2.93913 4.42143 1.92172 5.17157 1.17157C5.92172 0.421427 6.93913 0 8 0L19 0L28 9ZM22 9C21.2044 9 20.4413 8.68393 19.8787 8.12132C19.3161 7.55871 19 6.79565 19 6V2H15V4H13V6H15V8H13V10H15V12H12V10H10V8H12V6H10V4H12V2H8C7.46957 2 6.96086 2.21071 6.58579 2.58579C6.21071 2.96086 6 3.46957 6 4V28C6 28.5304 6.21071 29.0391 6.58579 29.4142C6.96086 29.7893 7.46957 30 8 30H24C24.5304 30 25.0391 29.7893 25.4142 29.4142C25.7893 29.0391 26 28.5304 26 28V9H22Z" fill="#FF7A00"/>
</svg>
